# xmcd CD database file
#
# Track frame offsets:
#	150
#	13586
#	27461
#	41432
#	57621
#	70695
#	83084
#	98583
#	112254
#	126557
#	140246
#	155068
#	170574
#
# Disc length: 2483 seconds
#
# Revision: 11
# Processed by: cddbd v1.5.2PL0 Copyright (c) Steve Scherf et al.
# Submitted via: CDex 1.51
#
DISCID=bd09b10d
DTITLE=Maxim Turbulenc - Vesele zpivanky
DYEAR=2000
DGENRE=Blues
TTITLE0=Varila mysicka kasicku
TTITLE1=Komari se zenili
TTITLE2=Defile u more
TTITLE3=At ziji duchove
TTITLE4=Jozin z bazin
TTITLE5=Babinskej
TTITLE6=Vecernicek
TTITLE7=Deset malych cernousku
TTITLE8=Kazdej den
TTITLE9=Muzikantova pisnicka
TTITLE10=Jede jede masinka
TTITLE11=Delani
TTITLE12=Mysgulas
EXTD=YEAR: 2000
EXTT0=
EXTT1=
EXTT2=
EXTT3=
EXTT4=
EXTT5=
EXTT6=
EXTT7=
EXTT8=
EXTT9=
EXTT10=
EXTT11=
EXTT12=
PLAYORDER=
